<?xml version="1.0" encoding="UTF-8" standalone="no"?>
<!-- Created with Inkscape (http://www.inkscape.org/) -->

<svg
   xmlns:dc="http://purl.org/dc/elements/1.1/"
   xmlns:cc="http://creativecommons.org/ns#"
   xmlns:rdf="http://www.w3.org/1999/02/22-rdf-syntax-ns#"
   xmlns:svg="http://www.w3.org/2000/svg"
   xmlns="http://www.w3.org/2000/svg"
   xmlns:xlink="http://www.w3.org/1999/xlink"
   xmlns:sodipodi="http://sodipodi.sourceforge.net/DTD/sodipodi-0.dtd"
   xmlns:inkscape="http://www.inkscape.org/namespaces/inkscape"
   width="864"
   height="864"
   id="svg2"
   version="1.1"
   inkscape:version="0.48.2 r9819"
   inkscape:export-filename="/Users/rotinom/Desktop/Software Engineering/CSE-5324/MyTutor/res/drawable/empty_profile.png"
   inkscape:export-xdpi="20.83"
   inkscape:export-ydpi="20.83"
   sodipodi:docname="graduate_body.svg">
  <defs
     id="defs4">
    <linearGradient
       id="linearGradient3820">
      <stop
         id="stop3842"
         offset="0"
         style="stop-color:#006cff;stop-opacity:1;" />
      <stop
         style="stop-color:#2a426c;stop-opacity:1;"
         offset="1"
         id="stop3824" />
    </linearGradient>
    <radialGradient
       inkscape:collect="always"
       xlink:href="#linearGradient3820"
       id="radialGradient3894"
       gradientUnits="userSpaceOnUse"
       gradientTransform="matrix(-1.0070541,0,0,1.0060437,867.41976,185.26593)"
       cx="432.36624"
       cy="432.03915"
       fx="432.36624"
       fy="432.03915"
       r="428.9632" />
  </defs>
  <sodipodi:namedview
     id="base"
     pagecolor="#ffffff"
     bordercolor="#666666"
     borderopacity="1.0"
     inkscape:pageopacity="0"
     inkscape:pageshadow="2"
     inkscape:zoom="0.37818287"
     inkscape:cx="385.44099"
     inkscape:cy="461.16784"
     inkscape:document-units="px"
     inkscape:current-layer="layer4"
     showgrid="false"
     inkscape:window-width="1680"
     inkscape:window-height="951"
     inkscape:window-x="-2"
     inkscape:window-y="42"
     inkscape:window-maximized="0" />
  <metadata
     id="metadata7">
    <rdf:RDF>
      <cc:Work
         rdf:about="">
        <dc:format>image/svg+xml</dc:format>
        <dc:type
           rdf:resource="http://purl.org/dc/dcmitype/StillImage" />
        <dc:title></dc:title>
      </cc:Work>
    </rdf:RDF>
  </metadata>
  <g
     inkscape:groupmode="layer"
     id="layer4"
     inkscape:label="Background"
     style="display:inline">
    <rect
       style="opacity:0.89600004;fill:#000000;fill-opacity:1;stroke:none"
       id="rect3003"
       width="1776.2522"
       height="1708.37"
       x="-373.35239"
       y="-273.02771"
       ry="12.142844" />
  </g>
  <g
     inkscape:groupmode="layer"
     id="layer7"
     inkscape:label="Layer"
     style="display:none" />
  <g
     inkscape:groupmode="layer"
     id="layer3"
     inkscape:label="Blue Circle"
     style="display:none">
    <path
       transform="translate(0,-188.36218)"
       style="fill:url(#radialGradient3894);fill-opacity:1;stroke:none"
       d="m 435.23621,188.36546 c 151.96844,0.58346 296.99785,84.39326 374.15206,219.31532 25.84158,45.19001 45.48483,103.24316 52.2724,154.52119 4.61814,34.88856 2.04624,115.88755 -4.62615,145.77114 -7.96309,35.66421 -21.77095,73.55626 -39.30658,107.82298 -40.25497,78.66305 -104.8471,143.10027 -181.42709,184.56611 l 0,-105.94127 c 0,-84.32354 -68.11127,-152.23175 -152.72605,-152.23175 l -114.26916,0 c -84.61478,0 -152.72605,67.90821 -152.72605,152.23175 l 0,99.70015 C 169.56418,966.10624 119.77627,922.95126 89.029902,882.72285 30.220082,805.77642 0.0297424,716.72655 3.2403621e-5,619.971 -0.0181676,559.94209 8.1781724,516.46479 29.928422,460.9023 51.475402,405.8592 83.569232,358.05534 129.21765,312.99853 202.32592,240.83775 292.33633,199.40814 396.46463,190.02764 c 12.94088,-1.16579 25.8929,-1.71163 38.77158,-1.66218 z"
       id="path3818"
       inkscape:connector-curvature="0"
       inkscape:export-filename="/Users/rotinom/Desktop/Software Engineering/CSE-5324/xxhdpi.png"
       inkscape:export-xdpi="300"
       inkscape:export-ydpi="300" />
  </g>
  <g
     inkscape:label="White Body"
     inkscape:groupmode="layer"
     id="layer1"
     transform="translate(0,-188.36218)"
     style="display:none">
    <path
       inkscape:connector-curvature="0"
       style="fill:#ffffff;fill-opacity:1;stroke:none"
       d="m 342.4375,549.76843 77.28125,21.84375 c 16.76196,4.73563 43.22578,3.22806 59.34375,-3.375 l 43.0625,-17.65625 c 11.83099,17.41969 18.75,38.4493 18.75,61.09375 0,60.1288 -48.7462,108.875 -108.875,108.875 -60.1288,0 -108.875,-48.7462 -108.875,-108.875 0,-22.99791 7.14141,-44.32961 19.3125,-61.90625 z"
       id="path3846"
       inkscape:export-filename="/Users/rotinom/Desktop/Software Engineering/CSE-5324/xxhdpi.png"
       inkscape:export-xdpi="300"
       inkscape:export-ydpi="300" />
    <path
       style="fill:#ffffff;fill-opacity:1;stroke:none"
       d="m 421.03125,444.20593 c 7.95829,0.0812 15.62051,0.97414 21.90625,2.75 l 137.1875,38.75 c 13.68797,3.86716 16.53373,10.66653 8.34375,16.625 L 451.875,489.89343 c -2.30969,-3.49606 -8.93556,-6.03125 -16.75,-6.03125 -9.73402,0 -17.625,3.91751 -17.625,8.75 0,4.83249 7.89098,8.75 17.625,8.75 5.1712,0 9.80715,-1.11393 13.03125,-2.875 l 124.28125,11.3125 -93.375,38.25 c -16.11797,6.60306 -42.58179,8.11063 -59.34375,3.375 l -137.1875,-38.75 c -16.76196,-4.73563 -17.27422,-13.86569 -1.15625,-20.46875 l 102.21875,-41.875 c 10.07373,-4.12692 24.17368,-6.26037 37.4375,-6.125 z"
       id="use3943"
       inkscape:export-filename="/Users/rotinom/Desktop/Software Engineering/CSE-5324/xxhdpi.png"
       inkscape:export-xdpi="300"
       inkscape:export-ydpi="300"
       inkscape:connector-curvature="0" />
    <path
       style="fill:#ffffff;fill-opacity:1;stroke:none"
       d="m 581.64684,583.46941 c 4.69797,0 8.47016,6.17379 8.47016,13.7685 0,0.61749 -0.0598,1.23151 -0.1033,1.8358 l -16.78537,0 c -0.061,-0.60436 -0.1033,-1.21076 -0.1033,-1.8358 0,-7.59471 3.82382,-13.7685 8.52181,-13.7685 z m 8.78004,18.17442 c 1.00244,3.35694 1.75011,7.26962 2.01425,11.56553 l 0.10329,0 0,3.99287 0,28.86795 -21.48528,0 0,-28.86795 0,-3.99287 0.10329,0 c 0.2668,-4.29373 1.01361,-8.20833 2.01425,-11.56553 l 17.2502,0 z"
       id="path3979"
       inkscape:connector-curvature="0"
       inkscape:export-filename="/Users/rotinom/Desktop/Software Engineering/CSE-5324/xxhdpi.png"
       inkscape:export-xdpi="300"
       inkscape:export-ydpi="300" />
    <path
       sodipodi:type="arc"
       style="fill:#ffffff;stroke:none"
       id="path2998"
       sodipodi:cx="430"
       sodipodi:cy="306.5"
       sodipodi:rx="11.25"
       sodipodi:ry="4.5"
       d="m 441.25,306.5 a 11.25,4.5 0 1 1 -22.5,0 11.25,4.5 0 1 1 22.5,0 z"
       transform="matrix(-1.3611111,0,0,1.5486111,1020.2153,17.869124)"
       inkscape:export-filename="/Users/rotinom/Desktop/Software Engineering/CSE-5324/xxhdpi.png"
       inkscape:export-xdpi="300"
       inkscape:export-ydpi="300" />
    <rect
       style="fill:#ffffff;stroke:none"
       id="rect3000"
       width="141.89368"
       height="5"
       x="-586.53564"
       y="448.43314"
       ry="0"
       transform="matrix(-0.99546374,-0.09514167,0,1,0,0)"
       inkscape:export-filename="/Users/rotinom/Desktop/Software Engineering/CSE-5324/xxhdpi.png"
       inkscape:export-xdpi="300"
       inkscape:export-ydpi="300" />
    <rect
       style="fill:#ffffff;stroke:none"
       id="rect3002"
       width="5.5"
       height="81.75"
       x="-584"
       y="504.36218"
       inkscape:export-filename="/Users/rotinom/Desktop/Software Engineering/CSE-5324/xxhdpi.png"
       inkscape:export-xdpi="300"
       inkscape:export-ydpi="300"
       transform="scale(-1,1)" />
    <path
       style="fill:#ffffff;fill-opacity:1;stroke:none"
       d="m 360.125,552.875 c -80.42706,0 -145.15625,63.11353 -145.15625,141.5 l 0,169.625 420,0 0,-169.625 c 0,-78.38647 -64.72919,-141.5 -145.15625,-141.5 l -129.6875,0 z"
       transform="translate(0,188.36218)"
       id="rect2995"
       inkscape:connector-curvature="0" />
    <path
       inkscape:export-ydpi="300"
       inkscape:export-xdpi="300"
       inkscape:export-filename="/Users/rotinom/Desktop/Software Engineering/CSE-5324/xxhdpi.png"
       id="path3070"
       d="m 342.4375,549.76843 77.28125,21.84375 c 16.76196,4.73563 43.22578,3.22806 59.34375,-3.375 l 43.0625,-17.65625 c 11.83099,17.41969 18.75,38.4493 18.75,61.09375 0,60.1288 -48.7462,108.875 -108.875,108.875 -60.1288,0 -108.875,-48.7462 -108.875,-108.875 0,-22.99791 7.14141,-44.32961 19.3125,-61.90625 z"
       style="fill:#ffffff;fill-opacity:1;stroke:none"
       inkscape:connector-curvature="0" />
    <path
       inkscape:connector-curvature="0"
       inkscape:export-ydpi="300"
       inkscape:export-xdpi="300"
       inkscape:export-filename="/Users/rotinom/Desktop/Software Engineering/CSE-5324/xxhdpi.png"
       id="path3072"
       d="m 421.03125,444.20593 c 7.95829,0.0812 15.62051,0.97414 21.90625,2.75 l 137.1875,38.75 c 13.68797,3.86716 16.53373,10.66653 8.34375,16.625 L 451.875,489.89343 c -2.30969,-3.49606 -8.93556,-6.03125 -16.75,-6.03125 -9.73402,0 -17.625,3.91751 -17.625,8.75 0,4.83249 7.89098,8.75 17.625,8.75 5.1712,0 9.80715,-1.11393 13.03125,-2.875 l 124.28125,11.3125 -93.375,38.25 c -16.11797,6.60306 -42.58179,8.11063 -59.34375,3.375 l -137.1875,-38.75 c -16.76196,-4.73563 -17.27422,-13.86569 -1.15625,-20.46875 l 102.21875,-41.875 c 10.07373,-4.12692 24.17368,-6.26037 37.4375,-6.125 z"
       style="fill:#ffffff;fill-opacity:1;stroke:none" />
    <path
       inkscape:export-ydpi="300"
       inkscape:export-xdpi="300"
       inkscape:export-filename="/Users/rotinom/Desktop/Software Engineering/CSE-5324/xxhdpi.png"
       inkscape:connector-curvature="0"
       id="path3074"
       d="m 581.64684,583.46941 c 4.69797,0 8.47016,6.17379 8.47016,13.7685 0,0.61749 -0.0598,1.23151 -0.1033,1.8358 l -16.78537,0 c -0.061,-0.60436 -0.1033,-1.21076 -0.1033,-1.8358 0,-7.59471 3.82382,-13.7685 8.52181,-13.7685 z m 8.78004,18.17442 c 1.00244,3.35694 1.75011,7.26962 2.01425,11.56553 l 0.10329,0 0,3.99287 0,28.86795 -21.48528,0 0,-28.86795 0,-3.99287 0.10329,0 c 0.2668,-4.29373 1.01361,-8.20833 2.01425,-11.56553 l 17.2502,0 z"
       style="fill:#ffffff;fill-opacity:1;stroke:none" />
    <path
       inkscape:export-ydpi="300"
       inkscape:export-xdpi="300"
       inkscape:export-filename="/Users/rotinom/Desktop/Software Engineering/CSE-5324/xxhdpi.png"
       transform="matrix(-1.3611111,0,0,1.5486111,1020.2153,17.869124)"
       d="m 441.25,306.5 a 11.25,4.5 0 1 1 -22.5,0 11.25,4.5 0 1 1 22.5,0 z"
       sodipodi:ry="4.5"
       sodipodi:rx="11.25"
       sodipodi:cy="306.5"
       sodipodi:cx="430"
       id="path3076"
       style="fill:#ffffff;stroke:none"
       sodipodi:type="arc" />
    <rect
       inkscape:export-ydpi="300"
       inkscape:export-xdpi="300"
       inkscape:export-filename="/Users/rotinom/Desktop/Software Engineering/CSE-5324/xxhdpi.png"
       transform="matrix(-0.99546374,-0.09514167,0,1,0,0)"
       ry="0"
       y="448.43314"
       x="-586.53564"
       height="5"
       width="141.89368"
       id="rect3078"
       style="fill:#ffffff;stroke:none" />
    <rect
       transform="scale(-1,1)"
       inkscape:export-ydpi="300"
       inkscape:export-xdpi="300"
       inkscape:export-filename="/Users/rotinom/Desktop/Software Engineering/CSE-5324/xxhdpi.png"
       y="504.36218"
       x="-584"
       height="81.75"
       width="5.5"
       id="rect3080"
       style="fill:#ffffff;stroke:none" />
  </g>
  <g
     style="display:inline"
     transform="translate(0,-188.36218)"
     id="g3083"
     inkscape:groupmode="layer"
     inkscape:label="White Head">
    <path
       inkscape:export-ydpi="300"
       inkscape:export-xdpi="300"
       inkscape:export-filename="/Users/rotinom/Desktop/Software Engineering/CSE-5324/xxhdpi.png"
       id="path3085"
       d="m 342.4375,549.76843 77.28125,21.84375 c 16.76196,4.73563 43.22578,3.22806 59.34375,-3.375 l 43.0625,-17.65625 c 11.83099,17.41969 18.75,38.4493 18.75,61.09375 0,60.1288 -48.7462,108.875 -108.875,108.875 -60.1288,0 -108.875,-48.7462 -108.875,-108.875 0,-22.99791 7.14141,-44.32961 19.3125,-61.90625 z"
       style="fill:#ffffff;fill-opacity:1;stroke:none;opacity:0.65"
       inkscape:connector-curvature="0" />
    <path
       inkscape:connector-curvature="0"
       inkscape:export-ydpi="300"
       inkscape:export-xdpi="300"
       inkscape:export-filename="/Users/rotinom/Desktop/Software Engineering/CSE-5324/xxhdpi.png"
       id="path3087"
       d="m 421.03125,444.20593 c 7.95829,0.0812 15.62051,0.97414 21.90625,2.75 l 137.1875,38.75 c 13.68797,3.86716 16.53373,10.66653 8.34375,16.625 L 451.875,489.89343 c -2.30969,-3.49606 -8.93556,-6.03125 -16.75,-6.03125 -9.73402,0 -17.625,3.91751 -17.625,8.75 0,4.83249 7.89098,8.75 17.625,8.75 5.1712,0 9.80715,-1.11393 13.03125,-2.875 l 124.28125,11.3125 -93.375,38.25 c -16.11797,6.60306 -42.58179,8.11063 -59.34375,3.375 l -137.1875,-38.75 c -16.76196,-4.73563 -17.27422,-13.86569 -1.15625,-20.46875 l 102.21875,-41.875 c 10.07373,-4.12692 24.17368,-6.26037 37.4375,-6.125 z"
       style="fill:#ffffff;fill-opacity:1;stroke:none;opacity:0.65" />
    <path
       style="fill:#ffffff;fill-opacity:1;stroke:none;opacity:0.65"
       d="M 434.9375 297.1875 C 426.48064 297.1875 419.625 300.30752 419.625 304.15625 C 419.625 308.00498 426.48064 311.125 434.9375 311.125 C 440.39136 311.125 445.16236 309.82885 447.875 307.875 L 578.5 320.375 L 578.5 396.09375 C 575.36126 398.1254 573.125 403.08403 573.125 408.875 C 573.125 409.50004 573.15775 410.11439 573.21875 410.71875 L 590 410.71875 C 590.0435 410.11446 590.125 409.49249 590.125 408.875 C 590.125 402.59174 587.552 397.27174 584 395.625 L 584 316 L 583.875 316 L 583.875 315.875 L 450.03125 303.09375 C 448.90396 299.75093 442.59806 297.1875 434.9375 297.1875 z M 573.1875 413.28125 C 572.18686 416.63845 571.42305 420.55002 571.15625 424.84375 L 571.0625 424.84375 L 571.0625 428.84375 L 571.0625 457.71875 L 592.53125 457.71875 L 592.53125 428.84375 L 592.53125 424.84375 L 592.4375 424.84375 C 592.17336 420.54784 591.43994 416.63819 590.4375 413.28125 L 573.1875 413.28125 z "
       transform="translate(0,188.36218)"
       id="path3089" />
  </g>
  <g
     inkscape:groupmode="layer"
     id="layer6"
     inkscape:label="Curved Body"
     style="display:inline">
    <path
       style="fill:#ffffff;fill-opacity:1;stroke:none;display:inline;opacity:0.65"
       d="M 432 0 C 193.41299 0 0 193.41299 0 432 C 0 670.58701 193.41299 864 432 864 C 670.58701 864 864 670.58701 864 432 C 864 193.41299 670.58701 0 432 0 z M 432 22 C 658.43675 22 842 205.56325 842 432 C 842 581.67627 761.7755 712.60984 642 784.1875 L 642 695.53125 C 642 616.51113 577.27081 552.875 496.84375 552.875 L 367.15625 552.875 C 286.72919 552.875 222 616.51113 222 695.53125 L 222 784.1875 C 102.2245 712.60984 22 581.67627 22 432 C 22 205.56325 205.56325 22 432 22 z "
       id="path3068" />
  </g>
  <g
     style="display:inline"
     inkscape:label="Circle"
     id="g3059"
     inkscape:groupmode="layer" />
</svg>
